<?xml version="1.0" encoding="UTF-8" standalone="no"?><!DOCTYPE svg PUBLIC "-//W3C//DTD SVG 1.1//EN" "http://www.w3.org/Graphics/SVG/1.1/DTD/svg11.dtd"><svg width="100%" height="100%" viewBox="0 0 4000 4000" version="1.1" xmlns="http://www.w3.org/2000/svg" xmlns:xlink="http://www.w3.org/1999/xlink" xml:space="preserve" xmlns:serif="http://www.serif.com/" style="fill-rule:evenodd;clip-rule:evenodd;stroke-linecap:round;stroke-linejoin:round;stroke-miterlimit:1.5;"><circle cx="1541.5" cy="888.259" r="285.714"/><path d="M1743.97,1242.96c-6.37,-43.981 -47.248,-74.517 -91.229,-68.147l-159.376,23.082c-43.981,6.369 -74.517,47.248 -68.147,91.229l174.975,1208.17c6.37,43.981 47.248,74.517 91.229,68.147l159.376,-23.082c43.982,-6.369 74.517,-47.248 68.148,-91.229l-174.976,-1208.17Z" style="stroke:#c12f2f;stroke-width:1px;"/><path d="M1919.27,2454.2c-7.723,-15.132 -26.279,-21.146 -41.41,-13.422l-54.832,27.988c-15.131,7.723 -21.145,26.278 -13.422,41.41l238.451,467.155c7.724,15.131 26.279,21.146 41.41,13.422l54.832,-27.988c15.131,-7.723 21.145,-26.279 13.422,-41.41l-238.451,-467.155Z" style="stroke:#c12f2f;stroke-width:1px;"/><path d="M1737.53,2493.61c-6.192,-15.82 -24.063,-23.636 -39.883,-17.443l-57.326,22.439c-15.82,6.192 -23.636,24.063 -17.444,39.883l191.18,488.409c6.192,15.82 24.063,23.636 39.883,17.444l57.326,-22.44c15.82,-6.192 23.636,-24.063 17.444,-39.883l-191.18,-488.409Z" style="stroke:#c12f2f;stroke-width:1px;"/><path d="M2564.24,1331.72c8.945,-14.443 4.482,-33.431 -9.961,-42.376l-52.336,-32.416c-14.442,-8.946 -33.43,-4.483 -42.376,9.96l-276.176,445.892c-8.945,14.443 -4.482,33.431 9.961,42.376l52.336,32.416c14.442,8.946 33.43,4.483 42.376,-9.96l276.176,-445.892Z" style="stroke:#c12f2f;stroke-width:1px;"/><path d="M2345.01,1196.38c7.151,-15.41 0.446,-33.727 -14.964,-40.878l-55.843,-25.913c-15.41,-7.15 -33.727,-0.445 -40.878,14.965l-220.771,475.766c-7.151,15.41 -0.445,33.727 14.965,40.878l55.843,25.913c15.41,7.15 33.727,0.445 40.877,-14.965l220.771,-475.766Z" style="stroke:#c12f2f;stroke-width:1px;"/><path d="M2159.49,2956.18c1.687,-16.904 -10.669,-31.998 -27.573,-33.684l-61.258,-6.111c-16.905,-1.686 -31.998,10.669 -33.684,27.574l-52.063,521.902c-1.687,16.905 10.668,31.998 27.573,33.685l61.258,6.111c16.904,1.686 31.998,-10.669 33.684,-27.574l52.063,-521.903Z" style="stroke:#c12f2f;stroke-width:1px;"/><path d="M1924.11,3022.02c2.327,-16.829 -9.447,-32.38 -26.275,-34.707l-60.982,-8.432c-16.828,-2.327 -32.38,9.446 -34.707,26.274l-71.839,519.55c-2.327,16.829 9.446,32.38 26.274,34.707l60.982,8.432c16.829,2.327 32.38,-9.446 34.707,-26.274l71.84,-519.55Z" style="stroke:#c12f2f;stroke-width:1px;"/><path d="M2273.15,1802.28c14.996,-7.982 20.692,-26.637 12.71,-41.634l-28.924,-54.344c-7.981,-14.997 -26.637,-20.692 -41.633,-12.711l-463.001,246.422c-14.997,7.982 -20.692,26.637 -12.71,41.634l28.923,54.344c7.982,14.997 26.637,20.692 41.634,12.71l463.001,-246.421Z" style="stroke:#c12f2f;stroke-width:1px;"/><path d="M2098.61,1723.31c14.997,-7.982 20.692,-26.637 12.71,-41.634l-28.923,-54.344c-7.982,-14.997 -26.637,-20.692 -41.634,-12.711l-463,246.422c-14.997,7.982 -20.693,26.637 -12.711,41.634l28.924,54.344c7.981,14.997 26.637,20.692 41.634,12.71l463,-246.421Z" style="stroke:#c12f2f;stroke-width:1px;"/></svg>