<?xml version="1.0" encoding="UTF-8" standalone="no"?><!DOCTYPE svg PUBLIC "-//W3C//DTD SVG 1.1//EN" "http://www.w3.org/Graphics/SVG/1.1/DTD/svg11.dtd"><svg width="100%" height="100%" viewBox="0 0 4000 4000" version="1.1" xmlns="http://www.w3.org/2000/svg" xmlns:xlink="http://www.w3.org/1999/xlink" xml:space="preserve" xmlns:serif="http://www.serif.com/" style="fill-rule:evenodd;clip-rule:evenodd;stroke-linecap:round;stroke-linejoin:round;stroke-miterlimit:1.5;"><path d="M1618.02,1200.16c322.457,-166.022 719.04,-39.015 885.061,283.442c166.021,322.458 39.015,719.04 -283.442,885.062c-322.458,166.021 -719.041,39.015 -885.062,-283.443c-166.021,-322.457 -39.015,-719.04 283.443,-885.061Z" style="fill:#b02900;stroke:#000;stroke-width:16px;"/><path d="M1618.02,1200.16l601.619,1168.5" style="fill:none;stroke:#000;stroke-width:8.93px;stroke-linecap:butt;"/><path d="M1618.02,1200.16c0,0 -161.577,217.978 84.376,695.685c245.954,477.706 517.243,472.819 517.243,472.819" style="fill:none;stroke:#000;stroke-width:9.67px;stroke-linecap:butt;"/><path d="M1618.02,1200.16c0,0 -378.01,329.411 -132.056,807.118c245.953,477.706 733.675,361.386 733.675,361.386" style="fill:none;stroke:#000;stroke-width:9.67px;stroke-linecap:butt;"/><path d="M1618.02,1200.16c0,0 271.289,-4.888 517.242,472.818c245.953,477.707 84.377,695.686 84.377,695.686" style="fill:none;stroke:#000;stroke-width:5.97px;stroke-linecap:butt;"/><path d="M1618.02,1200.16c0,0 487.721,-116.321 733.675,361.385c245.953,477.707 -132.056,807.119 -132.056,807.119" style="fill:none;stroke:#000;stroke-width:5.97px;stroke-linecap:butt;"/></svg>