<?xml version="1.0" encoding="UTF-8" standalone="no"?><!DOCTYPE svg PUBLIC "-//W3C//DTD SVG 1.1//EN" "http://www.w3.org/Graphics/SVG/1.1/DTD/svg11.dtd"><svg width="100%" height="100%" viewBox="0 0 4000 4000" version="1.1" xmlns="http://www.w3.org/2000/svg" xmlns:xlink="http://www.w3.org/1999/xlink" xml:space="preserve" xmlns:serif="http://www.serif.com/" style="fill-rule:evenodd;clip-rule:evenodd;stroke-linecap:round;stroke-linejoin:round;stroke-miterlimit:1.5;"><rect x="3059.09" y="525.65" width="275.324" height="3321.1"/><rect x="2329.35" y="642.023" width="729.74" height="384.926"/><rect x="2246.23" y="369.611" width="83.117" height="1150.99"/><rect x="1670.65" y="1379.3" width="539.013" height="42.335"/><path d="M2186.49,1391.45l0,18.047l136.706,0l0,-18.047l-136.706,0Z"/><path d="M1692.86,1421.64l493.635,0l-123.408,371.37l-246.818,0l-123.409,-371.37Z" style="fill:none;stroke:#000;stroke-width:5.97px;"/><path d="M1692.86,1421.64l390.395,307.722" style="fill:none;stroke:#000;stroke-width:5.97px;"/><path d="M1727.6,1525.37l334.723,263.84" style="fill:none;stroke:#000;stroke-width:5.97px;"/><path d="M1765.93,1641.45l190.053,149.806" style="fill:none;stroke:#000;stroke-width:5.97px;"/><path d="M1776.69,1392.13l332.04,261.726" style="fill:none;stroke:#000;stroke-width:5.97px;"/><path d="M1898.84,1396.58l234.671,184.975" style="fill:none;stroke:#000;stroke-width:5.97px;"/><path d="M2004.28,1387.91l152.67,120.34" style="fill:none;stroke:#000;stroke-width:5.97px;"/><path d="M2186.24,1422.53l-390.395,307.723" style="fill:none;stroke:#000;stroke-width:5.97px;"/><path d="M2151.49,1526.25l-334.723,263.84" style="fill:none;stroke:#000;stroke-width:5.97px;"/><path d="M2113.17,1642.33l-190.052,149.806" style="fill:none;stroke:#000;stroke-width:5.97px;"/><path d="M2102.4,1393.02l-332.04,261.725" style="fill:none;stroke:#000;stroke-width:5.97px;"/><path d="M1980.26,1397.47l-234.671,184.975" style="fill:none;stroke:#000;stroke-width:5.97px;"/><path d="M1874.81,1388.8l-152.671,120.34" style="fill:none;stroke:#000;stroke-width:5.97px;"/></svg>