<?xml version="1.0" encoding="UTF-8" standalone="no"?><!DOCTYPE svg PUBLIC "-//W3C//DTD SVG 1.1//EN" "http://www.w3.org/Graphics/SVG/1.1/DTD/svg11.dtd"><svg width="100%" height="100%" viewBox="0 0 4000 4000" version="1.1" xmlns="http://www.w3.org/2000/svg" xmlns:xlink="http://www.w3.org/1999/xlink" xml:space="preserve" xmlns:serif="http://www.serif.com/" style="fill-rule:evenodd;clip-rule:evenodd;stroke-linecap:round;stroke-linejoin:round;stroke-miterlimit:1.5;"><circle cx="1397.05" cy="904.46" r="285.714"/><path d="M1686.29,1235.69c-7.858,-43.74 -49.748,-72.872 -93.488,-65.014l-158.501,28.475c-43.74,7.857 -72.872,49.748 -65.014,93.488l215.855,1201.54c7.858,43.739 49.749,72.871 93.488,65.013l158.502,-28.474c43.74,-7.858 72.871,-49.749 65.013,-93.488l-215.855,-1201.54Z" style="stroke:#c12f2f;stroke-width:1px;"/><path d="M1914.15,2450.9c-8.951,-14.439 -27.941,-18.895 -42.38,-9.944l-52.324,32.436c-14.439,8.951 -18.895,27.941 -9.944,42.38l276.344,445.787c8.951,14.44 27.941,18.895 42.38,9.945l52.324,-32.436c14.439,-8.951 18.895,-27.941 9.944,-42.38l-276.344,-445.788Z" style="stroke:#c12f2f;stroke-width:1px;"/><path d="M1914.15,2450.9c-8.951,-14.439 -27.941,-18.895 -42.38,-9.944l-52.324,32.436c-14.439,8.951 -18.895,27.941 -9.944,42.38l276.344,445.787c8.951,14.44 27.941,18.895 42.38,9.945l52.324,-32.436c14.439,-8.951 18.895,-27.941 9.944,-42.38l-276.344,-445.788Z" style="stroke:#c12f2f;stroke-width:1px;"/><path d="M1719.04,2504.92c-8.951,-14.439 -27.94,-18.895 -42.379,-9.944l-52.324,32.436c-14.44,8.951 -18.895,27.941 -9.945,42.38l276.345,445.788c8.951,14.439 27.941,18.895 42.38,9.944l52.324,-32.436c14.439,-8.951 18.895,-27.941 9.944,-42.38l-276.345,-445.788Z" style="stroke:#c12f2f;stroke-width:1px;"/><path d="M2206.89,1212.03c-3.156,-16.693 -19.271,-27.683 -35.964,-24.527l-60.49,11.436c-16.693,3.156 -27.683,19.271 -24.527,35.964l97.436,515.363c3.156,16.693 19.271,27.683 35.963,24.527l60.491,-11.437c16.692,-3.155 27.683,-19.27 24.527,-35.963l-97.436,-515.363Z" style="stroke:#c12f2f;stroke-width:1px;"/><path d="M2032.34,1133.07c-3.156,-16.693 -19.27,-27.683 -35.963,-24.527l-60.491,11.436c-16.692,3.156 -27.682,19.271 -24.526,35.964l97.435,515.363c3.156,16.693 19.271,27.683 35.964,24.527l60.49,-11.437c16.693,-3.156 27.683,-19.27 24.527,-35.963l-97.436,-515.363Z" style="stroke:#c12f2f;stroke-width:1px;"/><path d="M2194.23,2970.87c4.031,-16.503 -6.095,-33.174 -22.598,-37.206l-59.804,-14.608c-16.503,-4.031 -33.174,6.094 -37.205,22.597l-124.461,509.512c-4.031,16.504 6.095,33.175 22.598,37.206l59.803,14.609c16.504,4.031 33.175,-6.094 37.206,-22.598l124.461,-509.512Z" style="stroke:#c12f2f;stroke-width:1px;"/><path d="M1999.12,3024.9c4.031,-16.503 -6.094,-33.174 -22.597,-37.206l-59.804,-14.608c-16.503,-4.031 -33.175,6.094 -37.206,22.597l-124.46,509.513c-4.031,16.503 6.094,33.174 22.597,37.206l59.804,14.608c16.503,4.031 33.175,-6.094 37.206,-22.598l124.46,-509.512Z" style="stroke:#c12f2f;stroke-width:1px;"/><path d="M2273.15,1802.28c14.996,-7.982 20.692,-26.637 12.71,-41.634l-28.924,-54.344c-7.981,-14.997 -26.637,-20.692 -41.633,-12.711l-463.001,246.422c-14.997,7.982 -20.692,26.637 -12.71,41.634l28.923,54.344c7.982,14.997 26.637,20.692 41.634,12.71l463.001,-246.421Z" style="stroke:#c12f2f;stroke-width:1px;"/><path d="M2098.61,1723.31c14.997,-7.982 20.692,-26.637 12.71,-41.634l-28.923,-54.344c-7.982,-14.997 -26.637,-20.692 -41.634,-12.711l-463,246.422c-14.997,7.982 -20.693,26.637 -12.711,41.634l28.924,54.344c7.981,14.997 26.637,20.692 41.634,12.71l463,-246.421Z" style="stroke:#c12f2f;stroke-width:1px;"/></svg>